<?xml version="1.0" standalone="no"?>
<!DOCTYPE svg PUBLIC "-//W3C//DTD SVG 20010904//EN"
 "http://www.w3.org/TR/2001/REC-SVG-20010904/DTD/svg10.dtd">
<svg version="1.0" xmlns="http://www.w3.org/2000/svg"
 width="840.000000pt" height="558.000000pt" viewBox="0 0 840.000000 558.000000"
 preserveAspectRatio="xMidYMid meet">

<g transform="translate(0.000000,558.000000) scale(0.100000,-0.100000)"
fill="#000000" stroke="none">
<path d="M5506 5086 c-14 -31 -50 -129 -81 -219 -130 -374 -172 -468 -245
-548 -49 -53 -113 -91 -321 -189 -270 -127 -523 -228 -1084 -435 -198 -73
-433 -160 -523 -194 -89 -33 -169 -61 -176 -61 -7 0 -20 19 -29 43 -9 23 -48
130 -87 237 -39 107 -95 260 -125 340 -29 80 -62 172 -74 205 -11 33 -45 127
-76 210 -30 82 -55 157 -55 166 0 14 30 21 178 44 97 16 186 32 197 36 11 4
-195 8 -457 8 -263 1 -478 -1 -478 -3 0 -2 28 -24 63 -49 325 -233 781 -1004
837 -1414 15 -110 4 -172 -45 -252 -56 -93 -53 -91 -640 -516 -686 -497 -753
-553 -816 -680 -67 -136 -45 -206 105 -333 67 -58 117 -79 233 -102 52 -10 99
-22 104 -27 4 -4 -9 -106 -28 -225 -20 -120 -34 -220 -32 -222 2 -2 22 -6 44
-8 37 -3 40 -1 46 27 4 17 7 68 8 115 2 160 19 258 56 335 39 81 110 166 157
188 30 14 47 14 173 1 468 -50 713 -94 1104 -199 180 -48 325 -28 394 55 54
64 73 134 87 319 6 69 15 152 21 184 15 76 33 103 439 662 68 94 168 233 224
310 55 77 170 235 256 350 221 298 319 431 445 603 61 83 115 151 120 152 10
0 59 -90 276 -500 30 -58 92 -174 138 -258 47 -88 79 -158 75 -165 -4 -6 -47
-52 -95 -102 -622 -639 -806 -1321 -509 -1894 202 -390 560 -668 990 -771 83
-20 122 -23 315 -24 285 -1 368 9 534 63 52 17 99 31 104 31 17 0 186 88 259
136 105 67 219 165 267 228 22 30 41 57 41 60 0 8 98 174 129 220 35 51 118
220 156 319 37 95 53 196 61 377 7 183 -12 319 -69 491 -149 450 -540 813
-1002 929 -185 47 -403 38 -565 -23 -106 -39 -117 -32 240 -159 282 -100 409
-152 549 -224 268 -139 416 -280 522 -499 105 -216 129 -450 74 -715 -109
-525 -533 -928 -1056 -1004 -134 -20 -224 -20 -358 0 -488 71 -914 431 -1040
876 -49 175 -54 209 -55 338 0 386 188 713 551 958 34 23 66 42 72 42 5 0 64
-107 130 -237 118 -232 317 -615 427 -820 30 -57 60 -103 67 -103 7 0 34 13
62 28 40 22 51 34 57 62 18 80 0 125 -206 514 -24 44 -78 149 -121 231 -43 83
-94 182 -115 220 -21 39 -72 138 -115 220 -43 83 -114 218 -158 300 -44 83
-107 202 -140 265 -33 63 -76 144 -95 180 -77 144 -360 697 -373 730 -8 19
-14 68 -14 110 0 90 15 125 91 210 32 36 55 73 59 92 6 30 -5 129 -35 332 -6
39 -12 72 -15 74 -2 3 -15 -21 -29 -52z m-336 -1027 c27 -33 50 -62 50 -64 0
-5 -129 -183 -445 -610 -225 -305 -828 -1129 -893 -1220 -135 -189 -226 -305
-233 -298 -12 12 -173 434 -255 668 -54 155 -114 364 -114 401 0 69 73 206
147 275 37 36 100 74 313 189 58 31 121 66 140 77 88 50 225 122 760 400 206
108 393 206 415 219 22 13 45 23 52 24 7 0 35 -27 63 -61z m-1976 -1476 c86
-262 188 -592 200 -650 10 -42 -13 -88 -70 -147 -30 -29 -57 -48 -80 -52 -31
-6 -477 4 -1007 23 -173 6 -189 8 -198 26 -17 31 -48 149 -42 161 2 6 102 100
221 209 120 108 231 209 247 225 98 90 193 172 198 172 6 0 77 -115 271 -441
80 -136 153 -252 160 -258 11 -10 26 -6 68 15 29 14 54 27 56 29 1 1 -2 15 -7
31 -5 16 -39 124 -76 239 -103 324 -131 412 -165 518 -17 55 -30 101 -28 102
7 8 134 53 150 54 13 1 34 -52 102 -256z"/>
<path d="M1400 3150 c-449 -80 -822 -358 -1026 -765 -155 -310 -197 -627 -129
-958 23 -110 50 -189 110 -313 178 -374 493 -644 908 -779 169 -55 257 -68
457 -67 205 2 291 12 419 53 291 92 537 286 700 552 73 120 168 340 159 369
-2 5 -109 -93 -238 -219 -298 -289 -415 -371 -640 -451 -142 -50 -239 -66
-395 -65 -210 0 -380 42 -570 138 -580 294 -833 927 -605 1517 154 402 482
675 910 759 132 26 377 31 513 11 43 -7 180 -12 304 -12 261 0 260 -1 98 79
-304 150 -664 206 -975 151z"/>
</g>
</svg>
